<svg xmlns="http://www.w3.org/2000/svg" width="1280" height="760" viewBox="0 0 1280 760" role="img" aria-labelledby="title desc">
  <title id="title">Sudoku Engine desktop game interface</title>
  <desc id="desc">Desktop view with difficulty tabs, a Sudoku board, number strip, mistake counter, timer, pencil state, hint count, pause, reset, and new game controls.</desc>
  <rect width="1280" height="760" fill="#ffffff"/>

  <g font-family="Inter, Arial, sans-serif">
    <text x="20" y="48" font-size="17" font-weight="800" fill="#8a97aa">Zorluk:</text>
    <text x="94" y="48" font-size="16" font-weight="900" fill="#2f5fb6">Kolay</text>
    <text x="162" y="48" font-size="16" font-weight="900" fill="#2f415c">Orta</text>
    <text x="216" y="48" font-size="16" font-weight="900" fill="#6d7a8f">Zor</text>
    <text x="276" y="48" font-size="16" font-weight="900" fill="#6d7a8f">Uzman</text>
    <text x="1020" y="36" font-size="26" font-weight="900" fill="#2f415c">Ready</text>
  </g>

  <g transform="translate(20 70)">
    <rect width="626" height="626" fill="#ffffff" stroke="#294263" stroke-width="2"/>
    <g stroke="#d4dce8" stroke-width="1">
      <path d="M69.56 0V626M139.11 0V626M208.67 0V626M278.22 0V626M347.78 0V626M417.33 0V626M486.89 0V626M556.44 0V626"/>
      <path d="M0 69.56H626M0 139.11H626M0 208.67H626M0 278.22H626M0 347.78H626M0 417.33H626M0 486.89H626M0 556.44H626"/>
    </g>
    <g stroke="#294263" stroke-width="2.4">
      <path d="M208.67 0V626M417.33 0V626M0 208.67H626M0 417.33H626"/>
    </g>
    <rect x="208.67" y="208.67" width="69.56" height="69.56" fill="#dcebf8"/>
    <rect x="278.22" y="208.67" width="69.56" height="69.56" fill="#e8f2fb"/>
    <rect x="347.78" y="208.67" width="69.56" height="69.56" fill="#e8f2fb"/>
    <rect x="208.67" y="278.22" width="69.56" height="69.56" fill="#e8f2fb"/>
    <rect x="208.67" y="347.78" width="69.56" height="69.56" fill="#e8f2fb"/>
    <g font-family="Inter, Arial, sans-serif" font-size="42" font-weight="500" fill="#31445f" text-anchor="middle" dominant-baseline="middle">
      <text x="104" y="35">2</text><text x="243" y="35">7</text><text x="382" y="35">4</text>
      <text x="104" y="104">5</text><text x="243" y="104">8</text><text x="382" y="104">1</text><text x="521" y="104">4</text>
      <text x="35" y="174">7</text><text x="104" y="174">8</text><text x="174" y="174">4</text><text x="313" y="174">3</text><text x="382" y="174">9</text><text x="452" y="174">5</text>
      <text x="174" y="243">6</text><text x="243" y="243">9</text><text x="452" y="243">1</text>
      <text x="104" y="313">9</text><text x="174" y="313">5</text><text x="243" y="313">1</text><text x="452" y="313">4</text><text x="521" y="313">8</text>
      <text x="104" y="382">7</text><text x="174" y="382">8</text><text x="382" y="382">5</text><text x="591" y="382">9</text>
      <text x="243" y="452">3</text><text x="313" y="452">6</text><text x="382" y="452">2</text>
      <text x="313" y="521">9</text><text x="382" y="521">7</text>
      <text x="35" y="591">8</text><text x="104" y="591">4</text><text x="174" y="591">7</text><text x="521" y="591">6</text>
    </g>
  </g>

  <g transform="translate(20 710)" font-family="Inter, Arial, sans-serif">
    <g fill="#ffffff" stroke="#6c96dc" stroke-width="2">
      <rect x="0" y="0" width="69.56" height="48"/><rect x="69.56" y="0" width="69.56" height="48"/><rect x="139.11" y="0" width="69.56" height="48"/>
      <rect x="208.67" y="0" width="69.56" height="48"/><rect x="278.22" y="0" width="69.56" height="48"/><rect x="347.78" y="0" width="69.56" height="48"/>
      <rect x="417.33" y="0" width="69.56" height="48"/><rect x="486.89" y="0" width="69.56" height="48"/><rect x="556.44" y="0" width="69.56" height="48"/>
    </g>
    <g fill="#8b94a3" font-size="12" font-weight="900"><text x="9" y="15">7</text><text x="78" y="15">7</text><text x="148" y="15">7</text><text x="218" y="15">4</text><text x="287" y="15">5</text><text x="357" y="15">5</text><text x="426" y="15">3</text><text x="496" y="15">4</text><text x="565" y="15">4</text></g>
    <g fill="#8b94a3" font-size="32" font-weight="900" text-anchor="middle"><text x="35" y="39">1</text><text x="104" y="39">2</text><text x="174" y="39">3</text><text x="243" y="39">4</text><text x="313" y="39">5</text><text x="382" y="39">6</text><text x="452" y="39">7</text><text x="521" y="39">8</text><text x="591" y="39">9</text></g>
  </g>

  <g transform="translate(670 70)" font-family="Inter, Arial, sans-serif">
    <g>
      <text x="0" y="16" font-size="16" font-weight="800" fill="#6b7890">Hatalar</text>
      <text x="0" y="46" font-size="22" font-weight="900" fill="#172b49">0/3</text>
      <text x="405" y="16" font-size="16" font-weight="800" fill="#6b7890" text-anchor="end">S&#252;re</text>
      <text x="405" y="46" font-size="22" font-weight="900" fill="#172b49" text-anchor="end">00:22</text>
    </g>
    <g transform="translate(0 72)">
      <circle cx="36" cy="36" r="36" fill="#f1f5fb"/><text x="36" y="47" font-size="34" font-weight="700" fill="#89a2d1" text-anchor="middle">&#8630;</text>
      <circle cx="118" cy="36" r="36" fill="#f1f5fb"/><text x="118" y="48" font-size="34" font-weight="700" fill="#2f5fb6" text-anchor="middle">&#9003;</text>
      <circle cx="200" cy="36" r="36" fill="#f1f5fb"/><text x="200" y="48" font-size="32" font-weight="700" fill="#2f5fb6" text-anchor="middle">&#9998;</text>
      <rect x="212" y="-2" width="34" height="22" rx="11" fill="#aab4c3"/><text x="229" y="14" font-size="11" font-weight="900" fill="#fff" text-anchor="middle">OFF</text>
      <circle cx="282" cy="36" r="36" fill="#f1f5fb"/><text x="282" y="47" font-size="34" font-weight="700" fill="#2f5fb6" text-anchor="middle">&#9906;</text>
      <rect x="294" y="-2" width="30" height="22" rx="11" fill="#7c99d8"/><text x="309" y="14" font-size="12" font-weight="900" fill="#fff" text-anchor="middle">0</text>
      <circle cx="364" cy="36" r="36" fill="#e9eef5"/><text x="364" y="47" font-size="28" font-weight="900" fill="#2f5fb6" text-anchor="middle">II</text>
    </g>
    <rect x="0" y="186" width="400" height="74" rx="6" fill="#6384ca"/>
    <text x="200" y="232" font-size="24" font-weight="900" fill="#fff" text-anchor="middle">Yeni Oyun</text>
    <rect x="0" y="274" width="400" height="46" rx="6" fill="#e9eff7"/>
    <text x="200" y="303" font-size="15" font-weight="900" fill="#2f5fb6" text-anchor="middle">Ba&#351;tan Ba&#351;la</text>
    <text x="0" y="354" font-size="14" font-weight="800" fill="#637089">No conflicts found.</text>
  </g>
</svg>
