<svg xmlns="http://www.w3.org/2000/svg" width="1280" height="760" viewBox="0 0 1280 760" role="img" aria-labelledby="title desc">
  <title id="title">Sudoku Engine desktop interface</title>
  <desc id="desc">Desktop view with a Sudoku board, timer, game controls, solver metrics, and visualization controls.</desc>
  <rect width="1280" height="760" fill="#f4f7fb"/>
  <rect x="44" y="36" width="1192" height="688" rx="18" fill="#ffffff" stroke="#d7dee8"/>
  <text x="80" y="92" font-family="Inter, Arial, sans-serif" font-size="38" font-weight="700" fill="#172033">Sudoku Engine</text>
  <text x="82" y="124" font-family="Inter, Arial, sans-serif" font-size="16" fill="#607089">Ready</text>
  <rect x="1084" y="64" width="112" height="48" rx="10" fill="#172033"/>
  <text x="1110" y="95" font-family="Inter, Arial, sans-serif" font-size="22" font-weight="700" fill="#ffffff">00:00</text>

  <g transform="translate(88 168)">
    <rect x="0" y="0" width="504" height="504" fill="#111827" rx="8"/>
    <g fill="#ffffff">
      <rect x="4" y="4" width="54" height="54"/>
      <rect x="60" y="4" width="54" height="54"/>
      <rect x="116" y="4" width="54" height="54"/>
      <rect x="174" y="4" width="54" height="54"/>
      <rect x="230" y="4" width="54" height="54"/>
      <rect x="286" y="4" width="54" height="54"/>
      <rect x="344" y="4" width="54" height="54"/>
      <rect x="400" y="4" width="54" height="54"/>
      <rect x="456" y="4" width="44" height="54"/>
    </g>
    <g stroke="#d2d9e5" stroke-width="2">
      <path d="M0 56H504M0 112H504M0 168H504M0 224H504M0 280H504M0 336H504M0 392H504M0 448H504"/>
      <path d="M56 0V504M112 0V504M168 0V504M224 0V504M280 0V504M336 0V504M392 0V504M448 0V504"/>
    </g>
    <g stroke="#111827" stroke-width="6">
      <path d="M168 0V504M336 0V504M0 168H504M0 336H504"/>
    </g>
    <rect x="172" y="172" width="52" height="52" fill="#dbeafe"/>
    <rect x="228" y="172" width="52" height="52" fill="#eef6ff"/>
    <rect x="284" y="172" width="52" height="52" fill="#eef6ff"/>
    <rect x="172" y="228" width="52" height="52" fill="#eef6ff"/>
    <rect x="172" y="284" width="52" height="52" fill="#eef6ff"/>
    <g font-family="Inter, Arial, sans-serif" font-size="26" font-weight="700" fill="#1f2937" text-anchor="middle" dominant-baseline="middle">
      <text x="31" y="31">8</text><text x="199" y="31">9</text><text x="255" y="31">1</text><text x="311" y="31">3</text><text x="479" y="31">4</text>
      <text x="31" y="87">9</text><text x="87" y="87">1</text><text x="143" y="87">4</text><text x="199" y="87">8</text><text x="255" y="87">6</text><text x="311" y="87">2</text><text x="423" y="87">7</text>
      <text x="31" y="143">3</text><text x="87" y="143">2</text><text x="143" y="143">6</text><text x="255" y="143">4</text><text x="311" y="143">7</text>
      <text x="31" y="199">6</text><text x="255" y="199">8</text><text x="367" y="199">9</text>
      <text x="199" y="255">3</text><text x="311" y="255">9</text><text x="423" y="255">5</text><text x="479" y="255">6</text>
      <text x="367" y="311">8</text><text x="423" y="311">4</text><text x="479" y="311">1</text>
      <text x="31" y="367">2</text><text x="255" y="367">9</text><text x="311" y="367">5</text><text x="367" y="367">7</text><text x="479" y="367">3</text>
      <text x="31" y="423">1</text><text x="87" y="423">4</text><text x="143" y="423">7</text><text x="255" y="423">3</text><text x="311" y="423">8</text><text x="367" y="423">5</text><text x="423" y="423">9</text><text x="479" y="423">2</text>
      <text x="87" y="479">9</text><text x="199" y="479">7</text><text x="255" y="479">2</text><text x="311" y="479">1</text><text x="367" y="479">4</text>
    </g>
  </g>

  <g transform="translate(656 168)" font-family="Inter, Arial, sans-serif">
    <rect width="488" height="504" rx="14" fill="#f8fafc" stroke="#d7dee8"/>
    <text x="28" y="46" font-size="14" font-weight="700" fill="#607089">DIFFICULTY</text>
    <rect x="28" y="62" width="200" height="44" rx="8" fill="#ffffff" stroke="#cbd5e1"/>
    <text x="48" y="90" font-size="18" fill="#172033">Medium</text>
    <g font-size="16" font-weight="700" text-anchor="middle">
      <rect x="28" y="136" width="132" height="44" rx="8" fill="#2563eb"/><text x="94" y="164" fill="#fff">New Game</text>
      <rect x="174" y="136" width="132" height="44" rx="8" fill="#ffffff" stroke="#cbd5e1"/><text x="240" y="164" fill="#172033">Solve</text>
      <rect x="320" y="136" width="132" height="44" rx="8" fill="#ffffff" stroke="#cbd5e1"/><text x="386" y="164" fill="#172033">Hint</text>
      <rect x="28" y="194" width="132" height="44" rx="8" fill="#ffffff" stroke="#cbd5e1"/><text x="94" y="222" fill="#172033">Pause</text>
      <rect x="174" y="194" width="132" height="44" rx="8" fill="#ffffff" stroke="#cbd5e1"/><text x="240" y="222" fill="#172033">Pencil</text>
      <rect x="320" y="194" width="132" height="44" rx="8" fill="#ffffff" stroke="#cbd5e1"/><text x="386" y="222" fill="#172033">Reset</text>
      <rect x="28" y="252" width="132" height="44" rx="8" fill="#ffffff" stroke="#cbd5e1"/><text x="94" y="280" fill="#172033">Clear</text>
    </g>
    <text x="28" y="334" font-size="20" font-weight="700" fill="#172033">Solver Metrics</text>
    <text x="28" y="374" font-size="15" fill="#607089">Visited</text><text x="180" y="374" font-size="15" fill="#172033">128</text>
    <text x="28" y="406" font-size="15" fill="#607089">Backtracks</text><text x="180" y="406" font-size="15" fill="#172033">11</text>
    <text x="28" y="438" font-size="15" fill="#607089">Depth</text><text x="180" y="438" font-size="15" fill="#172033">42</text>
    <text x="28" y="470" font-size="15" fill="#607089">Runtime</text><text x="180" y="470" font-size="15" fill="#172033">7 ms</text>
    <rect x="260" y="334" width="192" height="116" rx="10" fill="#ecfdf5" stroke="#a7f3d0"/>
    <text x="284" y="372" font-size="18" font-weight="700" fill="#047857">Hint ready</text>
    <text x="284" y="402" font-size="14" fill="#065f46">Cell (4,4) can safely be 5.</text>
  </g>
</svg>
