<svg xmlns="http://www.w3.org/2000/svg" width="390" height="760" viewBox="0 0 390 760" role="img" aria-labelledby="title desc">
  <title id="title">Sudoku Engine mobile interface</title>
  <desc id="desc">Mobile view with stacked timer, Sudoku board, and compact controls.</desc>
  <rect width="390" height="760" fill="#f4f7fb"/>
  <text x="24" y="54" font-family="Inter, Arial, sans-serif" font-size="30" font-weight="700" fill="#172033">Sudoku Engine</text>
  <text x="25" y="82" font-family="Inter, Arial, sans-serif" font-size="15" fill="#607089">Ready</text>
  <rect x="274" y="34" width="84" height="38" rx="9" fill="#172033"/>
  <text x="292" y="59" font-family="Inter, Arial, sans-serif" font-size="18" font-weight="700" fill="#fff">00:00</text>
  <g transform="translate(24 112)">
    <rect width="342" height="342" rx="8" fill="#111827"/>
    <g fill="#fff">
      <rect x="3" y="3" width="36" height="36"/><rect x="41" y="3" width="36" height="36"/><rect x="79" y="3" width="36" height="36"/>
      <rect x="117" y="3" width="36" height="36"/><rect x="155" y="3" width="36" height="36"/><rect x="193" y="3" width="36" height="36"/>
      <rect x="231" y="3" width="36" height="36"/><rect x="269" y="3" width="36" height="36"/><rect x="307" y="3" width="32" height="36"/>
    </g>
    <g stroke="#d2d9e5" stroke-width="1.5">
      <path d="M0 38H342M0 76H342M0 114H342M0 152H342M0 190H342M0 228H342M0 266H342M0 304H342"/>
      <path d="M38 0V342M76 0V342M114 0V342M152 0V342M190 0V342M228 0V342M266 0V342M304 0V342"/>
    </g>
    <g stroke="#111827" stroke-width="4">
      <path d="M114 0V342M228 0V342M0 114H342M0 228H342"/>
    </g>
    <rect x="117" y="117" width="36" height="36" fill="#dbeafe"/>
    <g font-family="Inter, Arial, sans-serif" font-size="18" font-weight="700" fill="#1f2937" text-anchor="middle" dominant-baseline="middle">
      <text x="21" y="21">8</text><text x="135" y="21">9</text><text x="173" y="21">1</text><text x="211" y="21">3</text><text x="325" y="21">4</text>
      <text x="21" y="59">9</text><text x="59" y="59">1</text><text x="97" y="59">4</text><text x="135" y="59">8</text><text x="173" y="59">6</text><text x="211" y="59">2</text><text x="287" y="59">7</text>
      <text x="21" y="97">3</text><text x="59" y="97">2</text><text x="97" y="97">6</text><text x="173" y="97">4</text><text x="211" y="97">7</text>
      <text x="21" y="135">6</text><text x="173" y="135">8</text><text x="249" y="135">9</text>
      <text x="135" y="173">3</text><text x="211" y="173">9</text><text x="287" y="173">5</text><text x="325" y="173">6</text>
      <text x="249" y="211">8</text><text x="287" y="211">4</text><text x="325" y="211">1</text>
    </g>
  </g>
  <g transform="translate(24 482)" font-family="Inter, Arial, sans-serif">
    <text x="0" y="20" font-size="13" font-weight="700" fill="#607089">DIFFICULTY</text>
    <rect x="0" y="32" width="342" height="42" rx="8" fill="#ffffff" stroke="#cbd5e1"/>
    <text x="18" y="59" font-size="16" fill="#172033">Medium</text>
    <rect x="0" y="94" width="160" height="42" rx="8" fill="#2563eb"/><text x="80" y="121" font-size="15" font-weight="700" fill="#fff" text-anchor="middle">New Game</text>
    <rect x="182" y="94" width="160" height="42" rx="8" fill="#ffffff" stroke="#cbd5e1"/><text x="262" y="121" font-size="15" font-weight="700" fill="#172033" text-anchor="middle">Hint</text>
    <rect x="0" y="150" width="160" height="42" rx="8" fill="#ffffff" stroke="#cbd5e1"/><text x="80" y="177" font-size="15" font-weight="700" fill="#172033" text-anchor="middle">Pause</text>
    <rect x="182" y="150" width="160" height="42" rx="8" fill="#ffffff" stroke="#cbd5e1"/><text x="262" y="177" font-size="15" font-weight="700" fill="#172033" text-anchor="middle">Pencil</text>
    <rect x="0" y="212" width="342" height="76" rx="10" fill="#ecfdf5" stroke="#a7f3d0"/>
    <text x="20" y="246" font-size="17" font-weight="700" fill="#047857">Keep going</text>
    <text x="20" y="272" font-size="14" fill="#065f46">Current board is valid.</text>
  </g>
</svg>
